<svg width="279" height="171" viewBox="0 0 279 171" fill="none" xmlns="http://www.w3.org/2000/svg">
<g clip-path="url(#clip0_419_1883)">
<path d="M278.5 44.4669C278.639 32.9876 274.43 21.8795 266.716 13.3669C258.883 4.47803 246.476 0.0335896 229.496 0.0335896H176.653V18.4002H187.235C202.691 18.4002 210.402 26.6669 210.402 44.5002C210.402 62.3335 202.691 70.6002 187.235 70.6002H167.207C172.934 61.9337 175.651 51.6281 174.939 41.2689C174.227 30.9097 170.127 21.0711 163.268 13.2669C155.434 4.37803 143.016 -0.0664062 126.014 -0.0664062H0.5V170.933H70.3672V18.3669H83.1857C98.6078 18.3669 106.319 26.6336 106.319 44.4669C106.319 62.3002 98.6078 70.5669 83.1857 70.5669H82.1508V100.567H187.235C202.691 100.567 210.402 108.833 210.402 126.667C210.402 144.5 202.691 152.767 187.235 152.767H175.251V111.333H104.583V171H229.496C246.454 171 258.861 166.556 266.716 157.667C274.312 149.03 278.501 137.928 278.501 126.433C278.501 114.939 274.312 103.837 266.716 95.2002C262.664 90.7281 257.542 87.3561 251.828 85.4002C257.542 83.4443 262.664 80.0723 266.716 75.6002C274.438 67.0791 278.647 55.9577 278.5 44.4669Z" fill="black"/>
</g>
<defs>
<clipPath id="clip0_419_1883">
<rect width="278" height="171" fill="white" transform="translate(0.5)"/>
</clipPath>
</defs>
</svg>
